<svg width="86" height="86" viewBox="0 0 86 86" fill="none" xmlns="http://www.w3.org/2000/svg">
<g filter="url(#filter0_d_17_2023)">
<g clip-path="url(#clip0_17_2023)">
<rect x="11" y="4" width="70" height="70" rx="16.2695" fill="url(#paint0_linear_17_2023)"/>
<path d="M23.1488 43.6444L53.9523 22.373L98.7753 80.7249L65.8175 103.473L23.1488 43.6444Z" fill="url(#paint1_linear_17_2023)"/>
<circle cx="46.8066" cy="40.4473" r="21.123" fill="#B9651E"/>
<circle cx="45.123" cy="38.9004" r="21.123" fill="#AAAAAA"/>
<circle cx="45.123" cy="37.123" r="21.123" fill="#EAEAEA"/>
<circle cx="45.1914" cy="37.1914" r="12.5781" fill="url(#paint2_linear_17_2023)"/>
<circle cx="45.3965" cy="37.6699" r="7.04102" fill="#1A1A1A"/>
<circle cx="45.123" cy="37.2598" r="7.04102" fill="#2C2C2C"/>
<circle cx="44.9863" cy="36.7129" r="7.04102" fill="url(#paint3_linear_17_2023)"/>
<circle cx="45.0463" cy="36.6253" r="4.94106" fill="#1A1A1A"/>
<circle cx="44.8546" cy="36.2536" r="4.94106" fill="#2E2E2E"/>
<circle cx="44.8004" cy="34.8863" r="4.94102" fill="url(#paint4_linear_17_2023)"/>
<circle cx="48.0625" cy="34.8672" r="0.683594" fill="url(#paint5_linear_17_2023)"/>
</g>
</g>
<defs>
<filter id="filter0_d_17_2023" x="0" y="0" width="86" height="86" filterUnits="userSpaceOnUse" color-interpolation-filters="sRGB">
<feFlood flood-opacity="0" result="BackgroundImageFix"/>
<feColorMatrix in="SourceAlpha" type="matrix" values="0 0 0 0 0 0 0 0 0 0 0 0 0 0 0 0 0 0 127 0" result="hardAlpha"/>
<feOffset dx="-3" dy="4"/>
<feGaussianBlur stdDeviation="4"/>
<feComposite in2="hardAlpha" operator="out"/>
<feColorMatrix type="matrix" values="0 0 0 0 0 0 0 0 0 0 0 0 0 0 0 0 0 0 0.25 0"/>
<feBlend mode="normal" in2="BackgroundImageFix" result="effect1_dropShadow_17_2023"/>
<feBlend mode="normal" in="SourceGraphic" in2="effect1_dropShadow_17_2023" result="shape"/>
</filter>
<linearGradient id="paint0_linear_17_2023" x1="15" y1="7.5" x2="75" y2="74" gradientUnits="userSpaceOnUse">
<stop stop-color="#FF9255"/>
<stop offset="1" stop-color="#FE4116"/>
</linearGradient>
<linearGradient id="paint1_linear_17_2023" x1="36.8397" y1="28.0625" x2="85.5116" y2="93.0723" gradientUnits="userSpaceOnUse">
<stop stop-color="#FF8B54"/>
<stop offset="1" stop-color="#FE5F2D" stop-opacity="0.06"/>
</linearGradient>
<linearGradient id="paint2_linear_17_2023" x1="40.8164" y1="25.707" x2="49.9082" y2="48.5391" gradientUnits="userSpaceOnUse">
<stop stop-color="#333333"/>
<stop offset="1" stop-color="#484848"/>
</linearGradient>
<linearGradient id="paint3_linear_17_2023" x1="44.9863" y1="29.6719" x2="44.9863" y2="43.7539" gradientUnits="userSpaceOnUse">
<stop stop-color="#2C2C2C"/>
<stop offset="1" stop-color="#585858"/>
</linearGradient>
<linearGradient id="paint4_linear_17_2023" x1="44.8004" y1="29.9453" x2="44.8004" y2="39.8273" gradientUnits="userSpaceOnUse">
<stop stop-color="#454545"/>
<stop offset="1" stop-color="#646464"/>
</linearGradient>
<linearGradient id="paint5_linear_17_2023" x1="48.0625" y1="34.1836" x2="48.0625" y2="35.5508" gradientUnits="userSpaceOnUse">
<stop stop-color="#292929"/>
<stop offset="1" stop-color="#363636"/>
</linearGradient>
<clipPath id="clip0_17_2023">
<rect x="11" y="4" width="70" height="70" rx="16.2695" fill="white"/>
</clipPath>
</defs>
</svg>
