<svg width="86" height="86" viewBox="0 0 86 86" fill="none" xmlns="http://www.w3.org/2000/svg">
<g filter="url(#filter0_d_17_2011)">
<g clip-path="url(#clip0_17_2011)">
<rect x="11" y="4" width="70" height="70" rx="16.2695" fill="url(#paint0_linear_17_2011)"/>
<path d="M23.1488 43.6444L53.9523 22.373L98.7753 80.7249L65.8175 103.473L23.1488 43.6444Z" fill="url(#paint1_linear_17_2011)"/>
<path d="M46.0011 22.4806C39.1652 23.1915 35.6333 28.8836 34.7218 31.6407C30.757 30.7521 28.4328 32.0509 27.9543 32.3243C22.8273 35.127 23.0324 39.7071 23.0324 40.1856C23.0871 47.0216 28.5695 49.2318 31.3039 49.4825H63.7062C69.7902 48.4571 69.9953 43.0567 69.9953 42.3048C69.175 34.5118 61.8605 35.4688 61.2453 35.4688C60.63 28.838 57.0753 26.2403 56.7336 25.8302C53.0421 22.002 46.4796 22.4122 46.0011 22.4806Z" fill="#B9651E"/>
<path d="M45.3175 21.5235C38.4816 22.2345 34.9497 27.9265 34.0382 30.6837C30.0734 29.795 27.7492 31.0938 27.2707 31.3673C22.1437 34.17 22.3488 38.7501 22.3488 39.2286C22.4035 46.0645 27.8859 48.2748 30.6203 48.5255H63.0226C69.1066 47.5001 69.3117 42.0997 69.3117 41.3477C68.4914 33.5548 61.1769 34.5118 60.5617 34.5118C59.9464 27.8809 56.3918 25.2833 56.05 24.8731C52.3585 21.045 45.796 21.4552 45.3175 21.5235Z" fill="#AAAAAA"/>
<path d="M45.0441 19.7686C38.2082 20.4796 34.6763 26.1716 33.7648 28.9288C29.7999 28.0401 27.4757 29.3389 26.9972 29.6124C21.8703 32.4151 22.0753 36.9952 22.0753 37.4737C22.13 44.3096 27.6125 46.5199 30.3468 46.7706H62.7492C68.8332 45.7452 69.0382 40.3448 69.0382 39.5929C68.2179 31.7999 60.9035 32.7569 60.2882 32.7569C59.673 26.1261 56.1183 23.5284 55.7765 23.1183C52.0851 19.2901 45.5226 19.7003 45.0441 19.7686Z" fill="#EAEAEA"/>
<path d="M48.7186 32.7202C46.9686 30.9702 44.9817 31.991 44.2069 32.7202C42.2929 34.6798 38.0819 38.9682 36.5507 40.4448C34.6366 42.2905 35.7987 44.2729 36.0722 44.6831C37.8222 46.5971 39.8091 45.4806 40.5839 44.6831L43.5233 41.8803V55.7573C44.2069 58.2866 46.3261 58.2182 46.4628 58.2182C48.4315 58.4917 49.2883 56.6915 49.4706 55.7573V41.8803L52.2733 44.6831C53.9823 46.2553 55.2128 45.7084 55.4179 45.6401C58.0429 44.9838 57.6965 42.4044 57.1952 41.1967L48.7186 32.7202Z" fill="#414141"/>
<path d="M48.7186 31.0795C46.9686 29.3295 44.9817 30.3504 44.2069 31.0795C42.2929 33.0392 38.0819 37.3276 36.5507 38.8042C34.6366 40.6499 35.7987 42.6323 36.0722 43.0424C37.8222 44.9565 39.8091 43.84 40.5839 43.0424L43.5233 40.2397V54.1167C44.2069 56.6459 46.3261 56.5776 46.4628 56.5776C48.4315 56.851 49.2883 55.0509 49.4706 54.1167V40.2397L52.2733 43.0424C53.9823 44.6147 55.2128 44.0678 55.4179 43.9995C58.0429 43.3432 57.6965 40.7638 57.1952 39.5561L48.7186 31.0795Z" fill="url(#paint2_linear_17_2011)"/>
</g>
</g>
<defs>
<filter id="filter0_d_17_2011" x="0" y="0" width="86" height="86" filterUnits="userSpaceOnUse" color-interpolation-filters="sRGB">
<feFlood flood-opacity="0" result="BackgroundImageFix"/>
<feColorMatrix in="SourceAlpha" type="matrix" values="0 0 0 0 0 0 0 0 0 0 0 0 0 0 0 0 0 0 127 0" result="hardAlpha"/>
<feOffset dx="-3" dy="4"/>
<feGaussianBlur stdDeviation="4"/>
<feComposite in2="hardAlpha" operator="out"/>
<feColorMatrix type="matrix" values="0 0 0 0 0 0 0 0 0 0 0 0 0 0 0 0 0 0 0.25 0"/>
<feBlend mode="normal" in2="BackgroundImageFix" result="effect1_dropShadow_17_2011"/>
<feBlend mode="normal" in="SourceGraphic" in2="effect1_dropShadow_17_2011" result="shape"/>
</filter>
<linearGradient id="paint0_linear_17_2011" x1="15" y1="7.5" x2="75" y2="74" gradientUnits="userSpaceOnUse">
<stop stop-color="#FF9255"/>
<stop offset="1" stop-color="#FE4116"/>
</linearGradient>
<linearGradient id="paint1_linear_17_2011" x1="36.8397" y1="28.0625" x2="85.5116" y2="93.0723" gradientUnits="userSpaceOnUse">
<stop stop-color="#FF8B54"/>
<stop offset="1" stop-color="#FE5F2D" stop-opacity="0.06"/>
</linearGradient>
<linearGradient id="paint2_linear_17_2011" x1="46.509" y1="30.1133" x2="46.509" y2="56.6055" gradientUnits="userSpaceOnUse">
<stop stop-color="#3D3D3D"/>
<stop offset="1" stop-color="#636363"/>
</linearGradient>
<clipPath id="clip0_17_2011">
<rect x="11" y="4" width="70" height="70" rx="16.2695" fill="white"/>
</clipPath>
</defs>
</svg>
